<?xml version="1.0" encoding="UTF-8" standalone="no"?>
<svg
   xmlns:dc="http://purl.org/dc/elements/1.1/"
   xmlns:cc="http://creativecommons.org/ns#"
   xmlns:rdf="http://www.w3.org/1999/02/22-rdf-syntax-ns#"
   xmlns:svg="http://www.w3.org/2000/svg"
   xmlns="http://www.w3.org/2000/svg"
   xmlns:sodipodi="http://sodipodi.sourceforge.net/DTD/sodipodi-0.dtd"
   xmlns:inkscape="http://www.inkscape.org/namespaces/inkscape"
   height="16"
   width="16"
   id="svg4334"
   version="1.1"
   inkscape:version="0.91 r13725"
   sodipodi:docname="octoface.svg">
  <metadata
     id="metadata4342">
    <rdf:RDF>
      <cc:Work
         rdf:about="">
        <dc:format>image/svg+xml</dc:format>
        <dc:type
           rdf:resource="http://purl.org/dc/dcmitype/StillImage" />
      </cc:Work>
    </rdf:RDF>
  </metadata>
  <defs
     id="defs4340" />
  <sodipodi:namedview
     pagecolor="#ffffff"
     bordercolor="#666666"
     borderopacity="1"
     objecttolerance="10"
     gridtolerance="10"
     guidetolerance="10"
     inkscape:pageopacity="0"
     inkscape:pageshadow="2"
     inkscape:window-width="1366"
     inkscape:window-height="741"
     id="namedview4338"
     showgrid="false"
     inkscape:zoom="14.75"
     inkscape:cx="-2.6440678"
     inkscape:cy="8"
     inkscape:window-x="0"
     inkscape:window-y="27"
     inkscape:window-maximized="1"
     inkscape:current-layer="svg4334" />
  <path
     d="M14.7 4.34c0.13-0.32 0.55-1.59-0.13-3.31 0 0-1.05-0.33-3.44 1.3C10.13 2.05 9.06 2.01 8 2.01c-1.06 0-2.13 0.04-3.13 0.32C2.48 0.69 1.43 1.03 1.43 1.03 0.75 2.75 1.17 4.02 1.3 4.34 0.49 5.21 0 6.33 0 7.69 0 12.84 3.33 14 7.98 14 12.63 14 16 12.84 16 7.69 16 6.33 15.51 5.21 14.7 4.34zM8 13.02c-3.3 0-5.98-0.15-5.98-3.35 0-0.76 0.38-1.48 1.02-2.07 1.07-0.98 2.9-0.46 4.96-0.46 2.07 0 3.88-0.52 4.96 0.46 0.65 0.59 1.02 1.3 1.02 2.07C13.98 12.86 11.3 13.02 8 13.02zM5.49 8.01c-0.66 0-1.2 0.8-1.2 1.78s0.54 1.79 1.2 1.79c0.66 0 1.2-0.8 1.2-1.79S6.15 8.01 5.49 8.01zM10.51 8.01C9.85 8.01 9.31 8.8 9.31 9.79s0.54 1.79 1.2 1.79 1.2-0.8 1.2-1.79C11.71 8.8 11.18 8.01 10.51 8.01z"
     id="path4336"
     style="fill:#bebebe;fill-opacity:1" />
</svg>
