<?xml version="1.0" encoding="UTF-8" standalone="no"?>
<svg
   xmlns:dc="http://purl.org/dc/elements/1.1/"
   xmlns:cc="http://creativecommons.org/ns#"
   xmlns:rdf="http://www.w3.org/1999/02/22-rdf-syntax-ns#"
   xmlns:svg="http://www.w3.org/2000/svg"
   xmlns="http://www.w3.org/2000/svg"
   xmlns:sodipodi="http://sodipodi.sourceforge.net/DTD/sodipodi-0.dtd"
   xmlns:inkscape="http://www.inkscape.org/namespaces/inkscape"
   height="16"
   width="12"
   id="svg4266"
   version="1.1"
   inkscape:version="0.91 r13725"
   sodipodi:docname="repo.svg">
  <metadata
     id="metadata4274">
    <rdf:RDF>
      <cc:Work
         rdf:about="">
        <dc:format>image/svg+xml</dc:format>
        <dc:type
           rdf:resource="http://purl.org/dc/dcmitype/StillImage" />
      </cc:Work>
    </rdf:RDF>
  </metadata>
  <defs
     id="defs4272" />
  <sodipodi:namedview
     pagecolor="#ffffff"
     bordercolor="#666666"
     borderopacity="1"
     objecttolerance="10"
     gridtolerance="10"
     guidetolerance="10"
     inkscape:pageopacity="0"
     inkscape:pageshadow="2"
     inkscape:window-width="1366"
     inkscape:window-height="741"
     id="namedview4270"
     showgrid="false"
     inkscape:zoom="34.0625"
     inkscape:cx="6"
     inkscape:cy="8"
     inkscape:window-x="0"
     inkscape:window-y="27"
     inkscape:window-maximized="1"
     inkscape:current-layer="svg4266" />
  <path
     d="M4 9h-1v-1h1v1z m0-3h-1v1h1v-1z m0-2h-1v1h1v-1z m0-2h-1v1h1v-1z m8-1v12c0 0.55-0.45 1-1 1H6v2l-1.5-1.5-1.5 1.5V14H1c-0.55 0-1-0.45-1-1V1C0 0.45 0.45 0 1 0h10c0.55 0 1 0.45 1 1z m-1 10H1v2h2v-1h3v1h5V11z m0-10H2v9h9V1z"
     id="path4268"
     style="fill:#bebebe;fill-opacity:1" />
</svg>
